<svg width="32" height="32" viewBox="0 0 512 512" fill="none" xmlns="http://www.w3.org/2000/svg" xmlns:xlink="http://www.w3.org/1999/xlink" class=""><rect id="r9" width="512" height="512" x="0" y="0" rx="128" fill="#ffffff" stroke="#FFFFFF" stroke-width="0" stroke-opacity="100%" paint-order="stroke"></rect><clipPath id="clip"><use xlink:href="#r9"></use></clipPath><defs><linearGradient id="ra" gradientUnits="userSpaceOnUse" gradientTransform="rotate(45)" style="transform-origin: center center;"><stop stop-color="#ffffff"></stop><stop offset="1" stop-color="#666666"></stop></linearGradient><radialGradient id="rb" cx="0" cy="0" r="1" gradientUnits="userSpaceOnUse" gradientTransform="translate(256) rotate(90) scale(512)"><stop stop-color="white"></stop><stop offset="1" stop-color="white" stop-opacity="0"></stop></radialGradient></defs><svg xmlns="http://www.w3.org/2000/svg" fill="none" viewBox="0 0 16 16" width="352" height="352" x="80" y="80" alignment-baseline="middle" style="color: rgb(35, 35, 35);"><path stroke="currentColor" stroke-linecap="round" stroke-width="1.5" d="M5.5 11.25v1.5c0 .75.5 1.5 1.5 1.5h2c1 0 1.5-.75 1.5-1.5v-1.5m-5 0H8m-2.5 0v-.646c0-.394-.116-.778-.33-1.109-.301-.463-.726-1.13-.92-1.495a4.25 4.25 0 1 1 7.502 0c-.196.365-.621 1.032-.921 1.495-.215.33-.331.715-.331 1.109v.646m0 0H8m0 0v-4.5"></path></svg></svg>